# xmcd
#
# Track frame offsets:
#	150
#	10468
#	18693
#	30642
#	41239
#	50796
#	60462
#	71562
#	82511
#	93490
#	103999
#	115467
#
# Disc length: 1670 seconds
#
# Revision: 0
# Processed by: cddbd v1.5.1PL0 Copyright (c) Steve Scherf et al.
# Submitted via: dBpowerAMP V4.0
#
DISCID=a306840c
DTITLE=Die Van Wyk Broers - Wakker Kitaar
DYEAR=1900
DGENRE=Instrumental
TTITLE0=Liefie se Vastrap
TTITLE1=Vaalrivier Seties
TTITLE2=(A)die Kalfie Wals (b) Die Hartseer Wals
TTITLE3=Sonop
TTITLE4=Laat my Gaan
TTITLE5=Kookwater
TTITLE6=Blikkiesdorp Vastrap
TTITLE7=Boegoeberg se Dam
TTITLE8=Die ou Ryperd
TTITLE9=Nooit op Sondag
TTITLE10=Lieflike Dag
TTITLE11=Rooirivier Kwela
EXTD=Willie en Kobus van Wyk
EXTT0=
EXTT1=
EXTT2=
EXTT3=
EXTT4=
EXTT5=
EXTT6=
EXTT7=
EXTT8=
EXTT9=
EXTT10=
EXTT11=
PLAYORDER=
